<?xml version="1.0" encoding="UTF-8"?>
<svg xmlns="http://www.w3.org/2000/svg" xmlns:xlink="http://www.w3.org/1999/xlink" width="40pt" height="40pt" viewBox="0 0 40 40" version="1.1">
<g id="surface1">
<path style=" stroke:none;fill-rule:nonzero;fill:rgb(0%,0%,0%);fill-opacity:1;" d="M 20 0 C 8.953125 0 0 8.953125 0 20 C 0 31.046875 8.953125 40 20 40 C 31.046875 40 40 31.046875 40 20 C 39.988281 8.960938 31.039062 0.0117188 20 0 Z M 20 38.125 C 9.988281 38.125 1.875 30.011719 1.875 20 C 1.875 9.988281 9.988281 1.875 20 1.875 C 30.011719 1.875 38.125 9.988281 38.125 20 C 38.113281 30.003906 30.003906 38.113281 20 38.125 Z M 20 38.125 "/>
<path style=" stroke:none;fill-rule:nonzero;fill:rgb(0%,0%,0%);fill-opacity:1;" d="M 18.164062 11.210938 C 17.792969 10.867188 17.21875 10.878906 16.859375 11.234375 C 16.503906 11.59375 16.492188 12.167969 16.835938 12.539062 L 24.300781 20 L 16.835938 27.460938 C 16.585938 27.695312 16.484375 28.046875 16.566406 28.378906 C 16.652344 28.710938 16.914062 28.972656 17.246094 29.058594 C 17.578125 29.140625 17.929688 29.039062 18.164062 28.789062 L 26.289062 20.664062 C 26.652344 20.296875 26.652344 19.703125 26.289062 19.335938 Z M 18.164062 11.210938 "/>
</g>
</svg>
