<?xml version="1.0" encoding="UTF-8"?>
<svg xmlns="http://www.w3.org/2000/svg" xmlns:xlink="http://www.w3.org/1999/xlink" width="40pt" height="40pt" viewBox="0 0 40 40" version="1.1">
<g id="surface1">
<path style=" stroke:none;fill-rule:nonzero;fill:rgb(0%,0%,0%);fill-opacity:1;" d="M 20 0 C 8.953125 0 0 8.953125 0 20 C 0 31.046875 8.953125 40 20 40 C 31.046875 40 40 31.046875 40 20 C 39.988281 8.960938 31.039062 0.0117188 20 0 Z M 20 38.125 C 9.988281 38.125 1.875 30.011719 1.875 20 C 1.875 9.988281 9.988281 1.875 20 1.875 C 30.011719 1.875 38.125 9.988281 38.125 20 C 38.113281 30.003906 30.003906 38.113281 20 38.125 Z M 20 38.125 "/>
<path style=" stroke:none;fill-rule:nonzero;fill:rgb(0%,0%,0%);fill-opacity:1;" d="M 23.164062 11.210938 C 22.796875 10.847656 22.203125 10.847656 21.835938 11.210938 L 13.710938 19.335938 C 13.347656 19.703125 13.347656 20.296875 13.710938 20.664062 L 21.835938 28.789062 C 22.207031 29.132812 22.78125 29.121094 23.140625 28.765625 C 23.496094 28.40625 23.507812 27.832031 23.164062 27.460938 L 15.699219 20 L 23.164062 12.539062 C 23.527344 12.171875 23.527344 11.578125 23.164062 11.210938 Z M 23.164062 11.210938 "/>
</g>
</svg>
