
<svg xmlns="http://www.w3.org/2000/svg" xmlns:xlink="http://www.w3.org/1999/xlink" width="15pt" height="17pt" viewBox="0 0 15 17" version="1.1">
<g id="surface1">
<path style=" stroke:none;fill-rule:nonzero;fill:rgb(0%,0%,0%);fill-opacity:1;" d="M 13.640625 1.0625 L 1.359375 1.0625 C 0.609375 1.0625 0 1.667969 0 2.410156 L 0 14.589844 C 0 15.332031 0.609375 15.9375 1.359375 15.9375 L 13.640625 15.9375 C 14.390625 15.9375 15 15.332031 15 14.589844 L 15 2.410156 C 15 1.667969 14.390625 1.0625 13.640625 1.0625 Z M 5.894531 4.835938 C 5.910156 5.609375 5.144531 5.742188 5.003906 5.742188 C 4.507812 5.742188 4.097656 5.34375 4.097656 4.847656 C 4.101562 3.679688 5.875 3.667969 5.894531 4.835938 Z M 11.144531 12.515625 C 8.945312 12.515625 10 10.0625 10.304688 8.976562 C 10.777344 7.4375 8.792969 7.019531 8.300781 9 L 7.4375 12.429688 L 5.925781 12.429688 L 6.199219 11.351562 C 5.144531 13.070312 3.03125 12.828125 3.03125 11.210938 C 3.035156 10.734375 3.058594 10.746094 3.800781 7.753906 L 2.734375 7.753906 L 3.058594 6.570312 L 5.617188 6.570312 C 4.492188 11.011719 4.527344 10.785156 4.515625 11.160156 C 4.515625 11.851562 5.886719 11.609375 6.4375 10.390625 L 7.101562 7.753906 L 6.019531 7.753906 L 6.34375 6.570312 L 8.648438 6.570312 L 8.351562 7.914062 C 9.707031 5.410156 12.632812 6.328125 11.757812 9.175781 C 11.285156 10.875 11.269531 10.859375 11.261719 11.128906 C 11.261719 11.644531 11.847656 11.878906 12.324219 10.570312 L 12.925781 10.789062 C 12.574219 12.007812 11.941406 12.515625 11.144531 12.515625 Z M 11.144531 12.515625 "/>
</g>
</svg>
