<svg id="Группа_1" data-name="Группа 1" xmlns="http://www.w3.org/2000/svg" width="60" height="60" viewBox="0 0 60 60">
  <defs>
    <style>
      .cls-1 {
        fill: #ffb534;
      }

      .cls-2 {
        fill: #fff;
        fill-rule: evenodd;
      }
    </style>
  </defs>
  <rect id="Icon_bg" class="cls-1" width="60" height="60"/>
  <path id="icon" class="cls-2" d="M1486.2,2046.6l-1.04-4.1a0.611,0.611,0,0,0,.5-0.6v-0.66a2.621,2.621,0,0,0-2.63-2.6h-4.72v-1.36a1.285,1.285,0,0,0-1.29-1.28h-24.06a1.285,1.285,0,0,0-1.29,1.28v11.22a0.625,0.625,0,0,0,1.25,0v-11.22a0.037,0.037,0,0,1,.04-0.04h24.06a0.037,0.037,0,0,1,.04.04v11.22a0.625,0.625,0,0,0,1.25,0v-0.7h7.39a2.056,2.056,0,0,1,1.95,1.4h-1.95a0.625,0.625,0,0,0-.63.62v1.32a1.955,1.955,0,0,0,1.97,1.94h0.71v2.72h-1.64a3.983,3.983,0,0,0-7.5,0h-0.3v-4.66a0.625,0.625,0,0,0-1.25,0v4.66h-13a3.983,3.983,0,0,0-7.5,0h-3.6a0.043,0.043,0,0,1-.04-0.04v-1.36h2.72a0.62,0.62,0,1,0,0-1.24h-6.02a0.62,0.62,0,1,0,0,1.24h2.05v1.36a1.285,1.285,0,0,0,1.29,1.28h3.39v0.04a3.965,3.965,0,0,0,7.93,0v-0.04h14.11v0.04a3.97,3.97,0,0,0,7.94,0v-0.04h2.04a0.625,0.625,0,0,0,.63-0.62v-6.6A3.279,3.279,0,0,0,1486.2,2046.6Zm-7.89-4.08h5.57l1.02,4.04h-6.59v-4.04Zm4.72-2.64a1.372,1.372,0,0,1,1.38,1.36v0.04h-6.1v-1.4h4.72Zm-22.72,19.88a2.68,2.68,0,1,1,2.72-2.68A2.7,2.7,0,0,1,1460.31,2059.76Zm22.05,0a2.68,2.68,0,1,1,2.71-2.68A2.693,2.693,0,0,1,1482.36,2059.76Zm4.68-7.92a0.7,0.7,0,0,1-.71-0.7v-0.7h1.42v1.4h-0.71Zm-26.73,3.96a1.28,1.28,0,1,0,1.3,1.28A1.291,1.291,0,0,0,1460.31,2055.8Zm22.05,0a1.28,1.28,0,1,0,1.29,1.28A1.291,1.291,0,0,0,1482.36,2055.8Zm-17.33-2.02a0.625,0.625,0,0,0,.63.62h9.35a0.62,0.62,0,1,0,0-1.24h-9.35A0.625,0.625,0,0,0,1465.03,2053.78Zm-14.07-2.02h8.02a0.62,0.62,0,0,0,0-1.24h-8.02A0.62,0.62,0,1,0,1450.96,2051.76Zm18.93-9.64-5.57,5.5-2.9-2.86a0.628,0.628,0,0,0-.88,0,0.61,0.61,0,0,0,0,.88l3.34,3.3a0.628,0.628,0,0,0,.88,0l6.02-5.94a0.628,0.628,0,0,0,0-.88A0.64,0.64,0,0,0,1469.89,2042.12Z" transform="translate(-1439 -2018)"/>
</svg>
