<svg xmlns="http://www.w3.org/2000/svg" width="65" height="52" viewBox="0 0 65 52">
  <defs>
    <style>
      .cls-1 {
        fill: #fe3e57;
        fill-rule: evenodd;
      }
    </style>
  </defs>
  <path id="Shape_2" class="cls-1" d="M2529.75,2231a1.735,1.735,0,1,1-1.75,1.73A1.741,1.741,0,0,1,2529.75,2231Zm12.3,0a1.735,1.735,0,1,1-1.77,1.73A1.75,1.75,0,0,1,2542.05,2231Zm12.29,0a1.735,1.735,0,1,1-1.75,1.73A1.741,1.741,0,0,1,2554.34,2231Zm12.32,0a1.735,1.735,0,1,1-1.75,1.73A1.748,1.748,0,0,1,2566.66,2231Zm12.29,0a1.735,1.735,0,1,1-1.76,1.73A1.752,1.752,0,0,1,2578.95,2231Zm12.3,0a1.735,1.735,0,1,1-1.75,1.73A1.741,1.741,0,0,1,2591.25,2231Zm-61.5,12.12a1.735,1.735,0,1,1-1.75,1.74A1.743,1.743,0,0,1,2529.75,2243.12Zm12.3,0a1.735,1.735,0,1,1-1.77,1.74A1.752,1.752,0,0,1,2542.05,2243.12Zm12.29,0a1.735,1.735,0,1,1-1.75,1.74A1.743,1.743,0,0,1,2554.34,2243.12Zm12.32,0a1.735,1.735,0,1,1-1.75,1.74A1.75,1.75,0,0,1,2566.66,2243.12Zm12.29,0a1.735,1.735,0,1,1-1.76,1.74A1.754,1.754,0,0,1,2578.95,2243.12Zm12.3,0a1.735,1.735,0,1,1-1.75,1.74A1.743,1.743,0,0,1,2591.25,2243.12Zm-61.5,12.16A1.72,1.72,0,1,1,2528,2257,1.733,1.733,0,0,1,2529.75,2255.28Zm12.3,0a1.721,1.721,0,1,1-1.77,1.72A1.742,1.742,0,0,1,2542.05,2255.28Zm12.29,0a1.72,1.72,0,1,1-1.75,1.72A1.733,1.733,0,0,1,2554.34,2255.28Zm12.32,0a1.72,1.72,0,1,1-1.75,1.72A1.739,1.739,0,0,1,2566.66,2255.28Zm12.29,0a1.72,1.72,0,1,1-1.76,1.72A1.744,1.744,0,0,1,2578.95,2255.28Zm12.3,0a1.72,1.72,0,1,1-1.75,1.72A1.733,1.733,0,0,1,2591.25,2255.28Zm-61.5,12.13a1.73,1.73,0,1,1-1.75,1.73A1.735,1.735,0,0,1,2529.75,2267.41Zm12.3,0a1.73,1.73,0,1,1-1.77,1.73A1.744,1.744,0,0,1,2542.05,2267.41Zm12.29,0a1.73,1.73,0,1,1-1.75,1.73A1.735,1.735,0,0,1,2554.34,2267.41Zm12.32,0a1.73,1.73,0,1,1-1.75,1.73A1.741,1.741,0,0,1,2566.66,2267.41Zm12.29,0a1.73,1.73,0,1,1-1.76,1.73A1.746,1.746,0,0,1,2578.95,2267.41Zm12.3,0a1.73,1.73,0,1,1-1.75,1.73A1.735,1.735,0,0,1,2591.25,2267.41Zm-61.5,12.12a1.735,1.735,0,1,1-1.75,1.74A1.743,1.743,0,0,1,2529.75,2279.53Zm12.3,0a1.735,1.735,0,1,1-1.77,1.74A1.752,1.752,0,0,1,2542.05,2279.53Zm12.29,0a1.735,1.735,0,1,1-1.75,1.74A1.743,1.743,0,0,1,2554.34,2279.53Zm12.32,0a1.735,1.735,0,1,1-1.75,1.74A1.75,1.75,0,0,1,2566.66,2279.53Zm12.29,0a1.735,1.735,0,1,1-1.76,1.74A1.754,1.754,0,0,1,2578.95,2279.53Zm12.3,0a1.735,1.735,0,1,1-1.75,1.74A1.743,1.743,0,0,1,2591.25,2279.53Z" transform="translate(-2528 -2231)"/>
</svg>
