<svg id="Icon" xmlns="http://www.w3.org/2000/svg" width="60" height="60" viewBox="0 0 60 60">
  <defs>
    <style>
      .cls-1 {
        fill: #34c3ff;
      }

      .cls-2 {
        fill: #fff;
        fill-rule: evenodd;
      }
    </style>
  </defs>
  <rect id="Icon_bg" class="cls-1" width="60" height="60"/>
  <path id="Icon-2" data-name="Icon" class="cls-2" d="M1881,2038.44l-1.45-.11-0.12,1.69a12.27,12.27,0,0,0-9.07-4.02,12.5,12.5,0,0,0,0,25,12.287,12.287,0,0,0,10.26-5.55l-1.2-.82a10.879,10.879,0,0,1-9.06,4.9,11.031,11.031,0,0,1,0-22.06,10.825,10.825,0,0,1,8.06,3.61l-1.86-.14-0.1,1.47,4.23,0.31Zm-18.93,10.34a2.372,2.372,0,0,0,.94.24c0.36,0,.61-0.11.61-0.37a0.537,0.537,0,0,0-.62-0.41h-0.46v-0.73h0.44a0.473,0.473,0,0,0,.55-0.31c0-.17-0.17-0.29-0.5-0.29a1.987,1.987,0,0,0-.86.23l-0.22-.74a2.659,2.659,0,0,1,1.31-.3,1.115,1.115,0,0,1,1.33.93,0.872,0.872,0,0,1-.7.84v0.01a0.877,0.877,0,0,1,.82.84c0,0.7-.66,1.11-1.61,1.11a2.533,2.533,0,0,1-1.25-.28Zm4.61,1.05a1.539,1.539,0,1,1,.01,0h-0.01Zm0.02-.75c0.27,0,.46-0.35.46-1.11s-0.19-1.11-.47-1.11-0.47.34-.47,1.11,0.19,1.11.47,1.11h0.01Zm3.18-3a9.727,9.727,0,0,1,1.3-.08,2.913,2.913,0,0,1,1.66.38,1.572,1.572,0,0,1,.73,1.41,1.791,1.791,0,0,1-.68,1.52,3.167,3.167,0,0,1-1.92.5,7.737,7.737,0,0,1-1.09-.06v-3.67Zm1.03,2.92a1.848,1.848,0,0,0,.24.01,1.123,1.123,0,0,0,1.31-1.16,1.03,1.03,0,0,0-1.19-1.06,1.95,1.95,0,0,0-.36.03V2049Zm5.73,0.09a3.749,3.749,0,0,0,.04.68h-0.93l-0.05-.23h-0.03a1,1,0,0,1-.79.29,0.873,0.873,0,0,1-.94-0.85c0-.74.65-1.07,1.67-1.07v-0.02c0-.1-0.07-0.22-0.47-0.22a1.9,1.9,0,0,0-.82.21l-0.18-.65a2.532,2.532,0,0,1,1.18-.26,1.136,1.136,0,0,1,1.32,1.21v0.91Zm-1-.55c-0.45,0-.67.11-0.67,0.34a0.243,0.243,0,0,0,.29.24,0.4,0.4,0,0,0,.37-0.28,0.757,0.757,0,0,0,.01-0.15v-0.15Zm2.44-1.5,0.36,1.18c0.04,0.16.1,0.38,0.14,0.51h0.02c0.04-.14.08-0.36,0.11-0.51l0.27-1.18h1.13l-0.57,1.56a4.34,4.34,0,0,1-1.09,2.02,1.685,1.685,0,0,1-.97.38l-0.19-.88a1.151,1.151,0,0,0,.33-0.07,0.877,0.877,0,0,0,.35-0.25,0.194,0.194,0,0,0,.06-0.13,0.571,0.571,0,0,0-.04-0.16l-1.06-2.47h1.15Z" transform="translate(-1839 -2018)"/>
</svg>
