<svg xmlns="http://www.w3.org/2000/svg" width="120" height="121" viewBox="0 0 120 121">
  <defs>
    <style>
      .cls-1 {
        fill: #ffb534;
        fill-rule: evenodd;
      }
    </style>
  </defs>
  <path id="Shape_1" class="cls-1" d="M1415.99,2039.99c-0.38,0-.75,0-1.12-0.01a0.585,0.585,0,0,1-.58-0.6,0.6,0.6,0,0,1,.6-0.58c1.35,0.03,2.72,0,4.07-.06a0.57,0.57,0,0,1,.61.56,0.59,0.59,0,0,1-.55.62C1418.01,2039.97,1417,2039.99,1415.99,2039.99Zm-5.21-.22a0.09,0.09,0,0,1-.05-0.01c-1.37-.12-2.76-0.29-4.12-0.5a0.592,0.592,0,0,1,.18-1.17c1.34,0.21,2.69.38,4.04,0.5a0.58,0.58,0,0,1,.53.64A0.587,0.587,0,0,1,1410.78,2039.77Zm12.3-.2a0.594,0.594,0,0,1-.59-0.52,0.609,0.609,0,0,1,.52-0.66c1.34-.16,2.69-0.37,4.02-0.62a0.581,0.581,0,0,1,.68.47,0.591,0.591,0,0,1-.47.69c-1.35.26-2.72,0.47-4.09,0.64h-0.07Zm-20.41-1.09a0.57,0.57,0,0,1-.13-0.01c-1.34-.31-2.69-0.67-4.01-1.08a0.59,0.59,0,0,1,.34-1.13c1.29,0.4,2.62.75,3.93,1.06A0.588,0.588,0,0,1,1402.67,2038.48Zm28.47-.45a0.59,0.59,0,0,1-.15-1.16c1.3-.35,2.61-0.75,3.89-1.18a0.588,0.588,0,0,1,.75.37,0.6,0.6,0,0,1-.37.75c-1.3.44-2.64,0.85-3.97,1.2A0.772,0.772,0,0,1,1431.14,2038.03Zm-36.33-1.95a0.522,0.522,0,0,1-.21-0.04c-1.29-.5-2.57-1.04-3.82-1.63a0.588,0.588,0,1,1,.49-1.07c1.23,0.57,2.49,1.11,3.75,1.59a0.607,0.607,0,0,1,.34.77A0.594,0.594,0,0,1,1394.81,2036.08Zm44.1-.7a0.6,0.6,0,0,1-.23-1.14c1.24-.53,2.49-1.1,3.69-1.71a0.588,0.588,0,0,1,.53,1.05c-1.23.63-2.5,1.21-3.77,1.75A0.585,0.585,0,0,1,1438.91,2035.38Zm-51.55-2.79a0.592,0.592,0,0,1-.29-0.07c-1.2-.67-2.4-1.39-3.56-2.14a0.607,0.607,0,0,1-.18-0.82,0.587,0.587,0,0,1,.82-0.18c1.13,0.74,2.31,1.45,3.49,2.1A0.592,0.592,0,0,1,1387.36,2032.59Zm58.88-.93a0.586,0.586,0,0,1-.51-0.29,0.6,0.6,0,0,1,.21-0.81c1.16-.69,2.31-1.43,3.42-2.21a0.6,0.6,0,0,1,.82.15,0.614,0.614,0,0,1-.15.83c-1.14.79-2.31,1.54-3.5,2.25A0.51,0.51,0,0,1,1446.24,2031.66Zm-65.79-3.55a0.592,0.592,0,0,1-.35-0.12c-1.1-.83-2.19-1.71-3.23-2.62a0.589,0.589,0,1,1,.76-0.9c1.02,0.89,2.09,1.75,3.18,2.57A0.6,0.6,0,0,1,1380.45,2028.11Zm72.54-1.14a0.592,0.592,0,0,1-.46-0.23,0.6,0.6,0,0,1,.09-0.83c1.06-.84,2.1-1.74,3.09-2.66a0.591,0.591,0,0,1,.8.87c-1.02.94-2.08,1.86-3.16,2.72A0.588,0.588,0,0,1,1452.99,2026.97Zm-78.76-4.26a0.583,0.583,0,0,1-.41-0.17c-0.98-.98-1.94-2-2.85-3.04a0.6,0.6,0,0,1,.05-0.84,0.588,0.588,0,0,1,.83.06c0.89,1.02,1.83,2.02,2.79,2.98A0.59,0.59,0,0,1,1374.23,2022.71Zm84.81-1.33a0.614,0.614,0,0,1-.4-0.16,0.589,0.589,0,0,1-.02-0.84c0.93-.99,1.84-2.02,2.7-3.07a0.586,0.586,0,0,1,.82-0.08,0.6,0.6,0,0,1,.08.84c-0.88,1.07-1.8,2.12-2.75,3.12A0.57,0.57,0,0,1,1459.04,2021.38Zm-90.24-4.88a0.6,0.6,0,0,1-.47-0.23c-0.83-1.1-1.64-2.24-2.4-3.4a0.593,0.593,0,0,1,.16-0.82,0.579,0.579,0,0,1,.81.16c0.75,1.14,1.55,2.26,2.37,3.34a0.609,0.609,0,0,1-.11.83A0.6,0.6,0,0,1,1368.8,2016.5Zm95.48-1.5a0.533,0.533,0,0,1-.34-0.11,0.592,0.592,0,0,1-.14-0.82c0.8-1.11,1.56-2.26,2.26-3.42a0.591,0.591,0,1,1,1,.63c-0.72,1.17-1.5,2.34-2.3,3.48A0.6,0.6,0,0,1,1464.28,2015Zm-100.01-5.39a0.6,0.6,0,0,1-.51-0.3c-0.68-1.21-1.33-2.45-1.92-3.7a0.588,0.588,0,0,1,.28-0.79,0.576,0.576,0,0,1,.78.27c0.58,1.23,1.21,2.45,1.88,3.63A0.6,0.6,0,0,1,1364.27,2009.61Zm104.33-1.65a0.544,0.544,0,0,1-.27-0.07,0.594,0.594,0,0,1-.25-0.8c0.63-1.21,1.23-2.45,1.77-3.69a0.582,0.582,0,0,1,.78-0.3,0.6,0.6,0,0,1,.3.78c-0.56,1.26-1.17,2.53-1.81,3.76A0.57,0.57,0,0,1,1468.6,2007.96Zm-107.87-5.81a0.585,0.585,0,0,1-.55-0.37c-0.51-1.29-.97-2.61-1.39-3.94a0.588,0.588,0,1,1,1.12-.36c0.41,1.3.87,2.6,1.36,3.86a0.594,0.594,0,0,1-.33.77A0.522,0.522,0,0,1,1360.73,2002.15Zm111.19-1.77a0.645,0.645,0,0,1-.2-0.03,0.6,0.6,0,0,1-.36-0.76c0.46-1.28.88-2.59,1.25-3.9a0.575,0.575,0,0,1,.72-0.41,0.6,0.6,0,0,1,.41.73c-0.38,1.34-.81,2.68-1.27,3.98A0.589,0.589,0,0,1,1471.92,2000.38Zm-113.68-6.11a0.577,0.577,0,0,1-.57-0.46c-0.33-1.34-.61-2.72-0.84-4.09a0.589,0.589,0,1,1,1.16-.2c0.23,1.35.5,2.7,0.82,4.02a0.592,0.592,0,0,1-.43.71A0.784,0.784,0,0,1,1358.24,1994.27Zm115.91-1.85c-0.04,0-.08-0.01-0.12-0.01a0.59,0.59,0,0,1-.45-0.71c0.27-1.33.51-2.69,0.69-4.03a0.586,0.586,0,1,1,1.16.16c-0.18,1.37-.42,2.76-0.7,4.12A0.6,0.6,0,0,1,1474.15,1992.42Zm-117.29-6.31a0.586,0.586,0,0,1-.58-0.53c-0.14-1.39-.23-2.79-0.27-4.17a0.585,0.585,0,0,1,.57-0.61,0.576,0.576,0,0,1,.6.57c0.04,1.36.13,2.73,0.27,4.09a0.607,0.607,0,0,1-.53.65h-0.06Zm118.41-1.89h-0.04a0.585,0.585,0,0,1-.54-0.63c0.09-1.36.14-2.73,0.14-4.1,0-1.24-.04-2.5-0.12-3.75a0.6,0.6,0,0,1,.55-0.63,0.585,0.585,0,0,1,.62.56c0.08,1.27.12,2.55,0.12,3.82,0,1.39-.05,2.8-0.14,4.18A0.59,0.59,0,0,1,1475.27,1984.22Zm-118.66-6.38h-0.03a0.59,0.59,0,0,1-.56-0.61c0.05-1.4.15-2.8,0.29-4.17a0.6,0.6,0,0,1,.65-0.53,0.581,0.581,0,0,1,.52.65c-0.14,1.35-.24,2.73-0.29,4.09A0.585,0.585,0,0,1,1356.61,1977.84Zm118.29-5.66a0.591,0.591,0,0,1-.58-0.52c-0.18-1.35-.4-2.71-0.67-4.04a0.587,0.587,0,1,1,1.15-.24c0.27,1.36.5,2.75,0.68,4.13a0.587,0.587,0,0,1-.5.66A0.249,0.249,0,0,1,1474.9,1972.18Zm-117.43-2.57a0.34,0.34,0,0,1-.1-0.01,0.6,0.6,0,0,1-.48-0.68c0.24-1.37.53-2.75,0.86-4.09a0.587,0.587,0,0,1,1.14.28c-0.32,1.32-.61,2.67-0.84,4.01A0.589,0.589,0,0,1,1357.47,1969.61Zm115.79-5.54a0.583,0.583,0,0,1-.56-0.44c-0.36-1.3-.77-2.62-1.22-3.9a0.594,0.594,0,0,1,.36-0.76,0.587,0.587,0,0,1,.75.36c0.46,1.31.87,2.65,1.24,3.99a0.6,0.6,0,0,1-.41.73A0.777,0.777,0,0,1,1473.26,1964.07Zm-113.81-2.49a0.566,0.566,0,0,1-.18-0.03,0.582,0.582,0,0,1-.37-0.74c0.42-1.32.9-2.65,1.41-3.94a0.588,0.588,0,1,1,1.09.44c-0.5,1.27-.97,2.57-1.39,3.86A0.588,0.588,0,0,1,1359.45,1961.58Zm111.08-5.31a0.6,0.6,0,0,1-.54-0.35c-0.53-1.25-1.12-2.49-1.74-3.7a0.594,0.594,0,0,1,.25-0.8,0.582,0.582,0,0,1,.79.25c0.64,1.24,1.24,2.51,1.78,3.77a0.6,0.6,0,0,1-.3.78A0.519,0.519,0,0,1,1470.53,1956.27Zm-108-2.37a0.583,0.583,0,0,1-.26-0.06,0.6,0.6,0,0,1-.27-0.79c0.6-1.25,1.26-2.5,1.94-3.7a0.589,0.589,0,1,1,1.02.59c-0.67,1.18-1.31,2.4-1.9,3.62A0.6,0.6,0,0,1,1362.53,1953.9Zm104.23-4.97a0.582,0.582,0,0,1-.5-0.28c-0.71-1.16-1.46-2.31-2.24-3.42a0.6,0.6,0,0,1,.14-0.83,0.59,0.59,0,0,1,.82.14c0.8,1.14,1.56,2.31,2.28,3.49a0.6,0.6,0,0,1-.2.82A0.641,0.641,0,0,1,1466.76,1948.93Zm-100.13-2.21a0.558,0.558,0,0,1-.33-0.1,0.593,0.593,0,0,1-.16-0.82c0.77-1.15,1.58-2.3,2.43-3.39a0.58,0.58,0,0,1,.82-0.11,0.6,0.6,0,0,1,.11.84c-0.83,1.07-1.63,2.19-2.39,3.32A0.577,0.577,0,0,1,1366.63,1946.72Zm95.38-4.54a0.568,0.568,0,0,1-.45-0.21c-0.86-1.06-1.76-2.1-2.68-3.09a0.6,0.6,0,0,1,.02-0.83,0.585,0.585,0,0,1,.83.02c0.94,1.01,1.86,2.07,2.74,3.15a0.59,0.59,0,0,1-.09.83A0.558,0.558,0,0,1,1462.01,1942.18Zm-90.35-2a0.578,0.578,0,0,1-.39-0.15,0.6,0.6,0,0,1-.05-0.83c0.92-1.04,1.89-2.05,2.87-3.02a0.577,0.577,0,0,1,.83.01,0.586,0.586,0,0,1-.01.83c-0.97.95-1.91,1.95-2.81,2.96A0.6,0.6,0,0,1,1371.66,1940.18Zm84.73-4.03a0.584,0.584,0,0,1-.4-0.16c-0.99-.92-2.02-1.83-3.07-2.68a0.589,0.589,0,0,1-.09-0.83,0.569,0.569,0,0,1,.82-0.09c1.07,0.87,2.13,1.79,3.14,2.74a0.586,0.586,0,0,1,.03.83A0.556,0.556,0,0,1,1456.39,1936.15Zm-78.85-1.75a0.607,0.607,0,0,1-.45-0.2,0.6,0.6,0,0,1,.07-0.84c1.05-.9,2.14-1.77,3.25-2.59a0.579,0.579,0,0,1,.82.12,0.6,0.6,0,0,1-.12.83c-1.09.81-2.16,1.66-3.19,2.54A0.561,0.561,0,0,1,1377.54,1934.4Zm72.46-3.45a0.611,0.611,0,0,1-.34-0.1c-1.1-.78-2.25-1.53-3.41-2.24a0.59,0.59,0,1,1,.61-1.01c1.18,0.72,2.35,1.48,3.48,2.28a0.589,0.589,0,0,1,.14.82A0.579,0.579,0,0,1,1450,1930.95Zm-65.86-1.46a0.568,0.568,0,0,1-.49-0.27,0.6,0.6,0,0,1,.18-0.82c1.16-.74,2.36-1.45,3.57-2.12a0.6,0.6,0,0,1,.8.24,0.59,0.59,0,0,1-.24.8c-1.18.65-2.36,1.35-3.5,2.08A0.62,0.62,0,0,1,1384.14,1929.49Zm58.82-2.8a0.544,0.544,0,0,1-.27-0.07c-1.2-.62-2.44-1.2-3.68-1.73a0.6,0.6,0,0,1-.31-0.78,0.58,0.58,0,0,1,.77-0.31c1.27,0.54,2.53,1.14,3.76,1.77A0.594,0.594,0,0,1,1442.96,1926.69Zm-51.61-1.14a0.593,0.593,0,0,1-.24-1.13c1.25-.58,2.54-1.11,3.82-1.6a0.581,0.581,0,0,1,.76.35,0.6,0.6,0,0,1-.34.76c-1.27.47-2.53,1-3.75,1.57A0.742,0.742,0,0,1,1391.35,1925.55Zm44.05-2.11a0.628,0.628,0,0,1-.19-0.03c-1.28-.44-2.58-0.85-3.89-1.2a0.593,0.593,0,0,1-.41-0.73,0.582,0.582,0,0,1,.72-0.41c1.33,0.36,2.66.77,3.96,1.22a0.594,0.594,0,0,1,.36.76A0.58,0.58,0,0,1,1435.4,1923.44Zm-36.37-.79a0.592,0.592,0,0,1-.16-1.16c1.32-.4,2.67-0.75,4.01-1.05a0.59,0.59,0,0,1,.26,1.15c-1.32.3-2.64,0.65-3.94,1.03A0.508,0.508,0,0,1,1399.03,1922.65Zm28.45-1.36a0.487,0.487,0,0,1-.12-0.01c-1.32-.26-2.67-0.48-4.01-0.65a0.589,0.589,0,0,1,.14-1.17c1.37,0.17,2.75.39,4.1,0.66a0.584,0.584,0,0,1,.46.69A0.577,0.577,0,0,1,1427.48,1921.29Zm-20.44-.44a0.6,0.6,0,0,1-.58-0.5,0.606,0.606,0,0,1,.5-0.68c1.36-.2,2.74-0.37,4.11-0.48a0.6,0.6,0,0,1,.64.54,0.594,0.594,0,0,1-.54.64c-1.35.11-2.71,0.27-4.04,0.47A0.277,0.277,0,0,1,1407.04,1920.85Zm12.29-.58h-0.03c-1.35-.08-2.72-0.11-4.07-0.09h0a0.59,0.59,0,0,1-.01-1.18c1.38-.02,2.77.01,4.14,0.09a0.586,0.586,0,0,1,.56.62A0.6,0.6,0,0,1,1419.33,1920.27Zm-3.34,107.5c-1.26,0-2.53-.05-3.77-0.14a0.593,0.593,0,0,1-.54-0.64,0.567,0.567,0,0,1,.63-0.54c1.22,0.09,2.45.14,3.68,0.14h0.38a0.583,0.583,0,0,1,.58.59,0.576,0.576,0,0,1-.58.59h-0.38Zm4.48-.21a0.591,0.591,0,0,1-.06-1.18c1.35-.13,2.7-0.31,4.02-0.56a0.594,0.594,0,0,1,.21,1.17c-1.35.25-2.74,0.44-4.12,0.57h-0.05Zm-12.28-.43c-0.03,0-.06-0.01-0.1-0.01-1.36-.23-2.73-0.52-4.06-0.87a0.59,0.59,0,0,1-.43-0.72,0.6,0.6,0,0,1,.72-0.42c1.3,0.34,2.63.62,3.97,0.84A0.595,0.595,0,0,1,1408.19,2027.13Zm20.35-1.05a0.6,0.6,0,0,1-.57-0.44,0.606,0.606,0,0,1,.41-0.73c1.3-.36,2.6-0.78,3.86-1.25a0.592,0.592,0,1,1,.41,1.11c-1.29.48-2.62,0.92-3.96,1.29A0.772,0.772,0,0,1,1428.54,2026.08Zm-28.3-1.01a0.433,0.433,0,0,1-.19-0.04c-1.3-.46-2.6-0.99-3.86-1.56a0.592,0.592,0,0,1-.29-0.79,0.586,0.586,0,0,1,.78-0.29c1.22,0.56,2.49,1.08,3.76,1.53a0.6,0.6,0,0,1,.36.75A0.588,0.588,0,0,1,1400.24,2025.07Zm35.99-1.87a0.594,0.594,0,0,1-.25-1.13c1.21-.58,2.42-1.22,3.58-1.91a0.589,0.589,0,0,1,.59,1.02c-1.19.71-2.43,1.37-3.67,1.96A0.573,0.573,0,0,1,1436.23,2023.2Zm-43.46-1.56a0.592,0.592,0,0,1-.29-0.07c-1.2-.69-2.39-1.43-3.53-2.22a0.6,0.6,0,0,1-.15-0.82,0.593,0.593,0,0,1,.82-0.16c1.11,0.77,2.27,1.5,3.44,2.17a0.589,0.589,0,0,1,.22.8A0.573,0.573,0,0,1,1392.77,2021.64Zm50.54-2.62a0.59,0.59,0,0,1-.34-1.07c1.1-.79,2.17-1.63,3.2-2.51a0.589,0.589,0,0,1,.76.9c-1.05.9-2.16,1.77-3.28,2.57A0.572,0.572,0,0,1,1443.31,2019.02Zm-57.31-2.05a0.588,0.588,0,0,1-.37-0.14c-1.07-.88-2.11-1.82-3.1-2.79a0.607,0.607,0,0,1-.01-0.84,0.586,0.586,0,0,1,.83-0.01c0.96,0.95,1.98,1.87,3.02,2.73a0.6,0.6,0,0,1,.09.83A0.614,0.614,0,0,1,1386,2016.97Zm63.57-3.3a0.581,0.581,0,0,1-.42-0.17,0.6,0.6,0,0,1,0-.84c0.95-.96,1.87-1.98,2.73-3.02a0.579,0.579,0,0,1,.83-0.07,0.587,0.587,0,0,1,.07.83c-0.88,1.07-1.83,2.11-2.8,3.1A0.583,0.583,0,0,1,1449.57,2013.67Zm-69.44-2.48a0.563,0.563,0,0,1-.44-0.21c-0.9-1.05-1.77-2.16-2.58-3.29a0.6,0.6,0,0,1,.13-0.83,0.582,0.582,0,0,1,.82.14c0.79,1.1,1.64,2.18,2.52,3.21a0.587,0.587,0,0,1-.07.83A0.554,0.554,0,0,1,1380.13,2011.19Zm74.69-3.87a0.524,0.524,0,0,1-.33-0.11,0.591,0.591,0,0,1-.15-0.82c0.77-1.11,1.5-2.28,2.17-3.45a0.589,0.589,0,1,1,1.02.59c-0.69,1.2-1.44,2.39-2.23,3.54A0.579,0.579,0,0,1,1454.82,2007.32Zm-79.48-2.84a0.609,0.609,0,0,1-.51-0.29c-0.71-1.2-1.37-2.44-1.97-3.69a0.59,0.59,0,1,1,1.06-.52c0.58,1.23,1.23,2.44,1.92,3.6a0.6,0.6,0,0,1-.21.81A0.521,0.521,0,0,1,1375.34,2004.48Zm83.57-4.33a0.533,0.533,0,0,1-.24-0.06,0.584,0.584,0,0,1-.29-0.78c0.57-1.23,1.09-2.51,1.55-3.79a0.586,0.586,0,0,1,.75-0.35,0.6,0.6,0,0,1,.35.76c-0.47,1.31-1,2.61-1.58,3.87A0.6,0.6,0,0,1,1458.91,2000.15Zm-87.15-3.12a0.58,0.58,0,0,1-.55-0.38c-0.49-1.3-.93-2.64-1.3-3.98a0.592,0.592,0,0,1,.4-0.73,0.606,0.606,0,0,1,.73.41c0.36,1.31.79,2.61,1.27,3.88a0.584,0.584,0,0,1-.34.76A0.522,0.522,0,0,1,1371.76,1997.03Zm89.95-4.66a1,1,0,0,1-.16-0.02,0.6,0.6,0,0,1-.41-0.73c0.34-1.3.64-2.65,0.87-3.99a0.584,0.584,0,1,1,1.15.2c-0.23,1.38-.53,2.76-0.89,4.1A0.586,0.586,0,0,1,1461.71,1992.37Zm-92.18-3.3a0.58,0.58,0,0,1-.58-0.48c-0.26-1.36-.46-2.75-0.6-4.14a0.588,0.588,0,1,1,1.17-.12c0.14,1.35.33,2.71,0.58,4.04a0.592,0.592,0,0,1-.46.69A0.448,0.448,0,0,1,1369.53,1989.07Zm93.59-4.85h-0.06a0.592,0.592,0,0,1-.53-0.64c0.11-1.35.17-2.72,0.17-4.09,0-.5-0.01-1-0.02-1.5a0.585,0.585,0,0,1,.57-0.61,0.57,0.57,0,0,1,.6.57c0.02,0.51.03,1.03,0.03,1.54,0,1.4-.06,2.81-0.18,4.19A0.586,0.586,0,0,1,1463.12,1984.22Zm-94.43-3.37a0.58,0.58,0,0,1-.58-0.58c-0.01-.26-0.01-0.52-0.01-0.78,0-1.13.04-2.28,0.12-3.41a0.586,0.586,0,1,1,1.17.08c-0.08,1.1-.12,2.23-0.12,3.33,0,0.25.01,0.51,0.01,0.76a0.591,0.591,0,0,1-.58.6h-0.01Zm94.27-6.42a0.584,0.584,0,0,1-.58-0.52c-0.16-1.35-.38-2.71-0.65-4.03a0.588,0.588,0,1,1,1.15-.25c0.28,1.36.5,2.75,0.66,4.14a0.588,0.588,0,0,1-.51.66h-0.07Zm-93.69-1.83a0.375,0.375,0,0,1-.1-0.01,0.585,0.585,0,0,1-.48-0.68c0.21-1.37.49-2.75,0.82-4.1a0.6,0.6,0,0,1,.71-0.44,0.59,0.59,0,0,1,.43.72c-0.32,1.32-.59,2.67-0.8,4.01A0.6,0.6,0,0,1,1369.27,1972.6Zm92.02-6.27a0.585,0.585,0,0,1-.56-0.42c-0.39-1.3-.84-2.6-1.33-3.86a0.588,0.588,0,0,1,.32-0.77,0.6,0.6,0,0,1,.77.33c0.51,1.3.97,2.63,1.37,3.96a0.6,0.6,0,0,1-.4.74A0.468,0.468,0,0,1,1461.29,1966.33Zm-90.04-1.76a0.582,0.582,0,0,1-.19-0.03,0.6,0.6,0,0,1-.37-0.75c0.45-1.32.96-2.63,1.52-3.9a0.591,0.591,0,0,1,1.08.48c-0.55,1.24-1.05,2.52-1.49,3.8A0.576,0.576,0,0,1,1371.25,1964.57Zm87.01-5.92a0.592,0.592,0,0,1-.53-0.32c-0.6-1.21-1.27-2.41-1.98-3.57a0.594,0.594,0,0,1,.19-0.81,0.585,0.585,0,0,1,.81.19c0.73,1.18,1.41,2.41,2.03,3.65a0.6,0.6,0,0,1-.26.8A0.651,0.651,0,0,1,1458.26,1958.65Zm-83.68-1.64a0.581,0.581,0,0,1-.28-0.07,0.592,0.592,0,0,1-.23-0.81c0.67-1.21,1.4-2.42,2.17-3.57a0.574,0.574,0,0,1,.81-0.16,0.593,0.593,0,0,1,.16.82c-0.75,1.13-1.46,2.3-2.11,3.49A0.6,0.6,0,0,1,1374.58,1957.01Zm79.36-5.39a0.578,0.578,0,0,1-.47-0.24c-0.8-1.09-1.66-2.15-2.56-3.17a0.591,0.591,0,1,1,.88-0.79c0.92,1.05,1.8,2.14,2.62,3.25a0.59,0.59,0,0,1-.12.83A0.571,0.571,0,0,1,1453.94,1951.62Zm-74.77-1.47a0.64,0.64,0,0,1-.37-0.13,0.61,0.61,0,0,1-.09-0.84c0.87-1.08,1.79-2.13,2.75-3.14a0.585,0.585,0,0,1,.83-0.02,0.6,0.6,0,0,1,.01.84c-0.93.98-1.83,2.01-2.68,3.07A0.578,0.578,0,0,1,1379.17,1950.15Zm69.32-4.71a0.561,0.561,0,0,1-.4-0.17c-0.98-.93-2.01-1.83-3.07-2.68a0.6,0.6,0,0,1-.09-0.83,0.577,0.577,0,0,1,.82-0.09c1.08,0.86,2.14,1.79,3.14,2.74a0.6,0.6,0,0,1,.03.84A0.608,0.608,0,0,1,1448.49,1945.44Zm-63.64-1.26a0.6,0.6,0,0,1-.44-0.2,0.587,0.587,0,0,1,.06-0.83c1.03-.92,2.13-1.8,3.24-2.62a0.579,0.579,0,0,1,.82.12,0.6,0.6,0,0,1-.13.83c-1.08.8-2.15,1.66-3.16,2.56A0.568,0.568,0,0,1,1384.85,1944.18Zm57.21-3.89a0.55,0.55,0,0,1-.32-0.1c-1.12-.75-2.29-1.46-3.48-2.11a0.587,0.587,0,0,1-.23-0.8,0.578,0.578,0,0,1,.79-0.23c1.22,0.66,2.42,1.39,3.57,2.15a0.605,0.605,0,0,1,.16.83A0.582,0.582,0,0,1,1442.06,1940.29Zm-50.59-1a0.586,0.586,0,0,1-.3-1.09c1.18-.73,2.4-1.4,3.64-2.02a0.568,0.568,0,0,1,.78.27,0.583,0.583,0,0,1-.26.79c-1.21.6-2.4,1.26-3.55,1.97A0.6,0.6,0,0,1,1391.47,1939.29Zm43.38-2.95a0.593,0.593,0,0,1-.23-0.05c-1.24-.54-2.51-1.04-3.79-1.47a0.593,0.593,0,0,1-.37-0.75,0.586,0.586,0,0,1,.74-0.37c1.32,0.44,2.62.95,3.89,1.5a0.6,0.6,0,0,1,.3.78A0.582,0.582,0,0,1,1434.85,1936.34Zm-36.03-.71a0.582,0.582,0,0,1-.54-0.37,0.594,0.594,0,0,1,.33-0.77c1.29-.51,2.61-0.96,3.94-1.35a0.593,0.593,0,0,1,.33,1.14c-1.29.38-2.59,0.82-3.84,1.31A0.538,0.538,0,0,1,1398.82,1935.63Zm28.25-1.92a0.708,0.708,0,0,1-.14-0.01c-1.3-.32-2.64-0.58-3.98-0.78a0.592,0.592,0,0,1,.18-1.17c1.36,0.2,2.74.47,4.08,0.8A0.589,0.589,0,0,1,1427.07,1933.71Zm-20.37-.39a0.6,0.6,0,0,1-.58-0.48,0.607,0.607,0,0,1,.46-0.7c1.36-.27,2.74-0.48,4.11-0.64a0.594,0.594,0,0,1,.65.53,0.586,0.586,0,0,1-.52.65c-1.34.15-2.69,0.36-4.01,0.62A0.425,0.425,0,0,1,1406.7,1933.32Zm12.26-.83h-0.04c-1.34-.09-2.71-0.11-4.05-0.08a0.591,0.591,0,0,1-.6-0.58,0.583,0.583,0,0,1,.57-0.6c1.38-.04,2.78-0.01,4.15.08A0.591,0.591,0,0,1,1418.96,1932.49Zm-4.74,83.32h-0.03a36.057,36.057,0,0,1-4.15-.45,0.594,0.594,0,0,1,.2-1.17,33.676,33.676,0,0,0,4.01.44,0.593,0.593,0,0,1,.56.62A0.6,0.6,0,0,1,1414.22,2015.81Zm4.11-.03a0.591,0.591,0,0,1-.04-1.18,36,36,0,0,0,4.01-.5,0.581,0.581,0,0,1,.68.47,0.6,0.6,0,0,1-.47.69,38.379,38.379,0,0,1-4.14.52h-0.04Zm-12.19-1.32a0.508,0.508,0,0,1-.17-0.03,34.668,34.668,0,0,1-3.93-1.4,0.59,0.59,0,1,1,.45-1.09,34.539,34.539,0,0,0,3.81,1.36A0.592,0.592,0,0,1,1406.14,2014.46Zm20.25-.17a0.585,0.585,0,0,1-.56-0.42,0.593,0.593,0,0,1,.39-0.74,34.365,34.365,0,0,0,3.78-1.41,0.589,0.589,0,1,1,.47,1.08,36.04,36.04,0,0,1-3.91,1.47A0.985,0.985,0,0,1,1426.39,2014.29Zm-27.81-3.03a0.6,0.6,0,0,1-.29-0.08,35.118,35.118,0,0,1-3.51-2.28,0.581,0.581,0,0,1-.13-0.82,0.573,0.573,0,0,1,.82-0.13,35.7,35.7,0,0,0,3.39,2.2A0.592,0.592,0,0,1,1398.58,2011.26Zm35.31-.29a0.571,0.571,0,0,1-.5-0.29,0.588,0.588,0,0,1,.21-0.81,35.238,35.238,0,0,0,3.36-2.26,0.589,0.589,0,0,1,.82.12,0.6,0.6,0,0,1-.12.83,36.239,36.239,0,0,1-3.47,2.33A0.542,0.542,0,0,1,1433.89,2010.97Zm-41.94-4.58a0.567,0.567,0,0,1-.4-0.16,34.472,34.472,0,0,1-2.9-3.02,0.6,0.6,0,0,1,.06-0.83,0.578,0.578,0,0,1,.83.06,33.668,33.668,0,0,0,2.81,2.92,0.608,0.608,0,0,1,.03.84A0.57,0.57,0,0,1,1391.95,2006.39Zm48.49-.39a0.615,0.615,0,0,1-.43-0.18,0.6,0.6,0,0,1,.03-0.84,35.276,35.276,0,0,0,2.76-2.97,0.575,0.575,0,0,1,.82-0.07,0.589,0.589,0,0,1,.08.83,36.08,36.08,0,0,1-2.86,3.07A0.551,0.551,0,0,1,1440.44,2006Zm-53.84-5.87a0.6,0.6,0,0,1-.49-0.26,38.4,38.4,0,0,1-2.13-3.61,0.594,0.594,0,0,1,.25-0.8,0.582,0.582,0,0,1,.79.25,35.329,35.329,0,0,0,2.07,3.5,0.593,0.593,0,0,1-.16.82A0.58,0.58,0,0,1,1386.6,2000.13Zm59.09-.47a0.633,0.633,0,0,1-.32-0.1,0.6,0.6,0,0,1-.17-0.82,34.142,34.142,0,0,0,2.01-3.53,0.588,0.588,0,0,1,1.05.53,36.515,36.515,0,0,1-2.08,3.65A0.591,0.591,0,0,1,1445.69,1999.66Zm-62.87-6.86a0.58,0.58,0,0,1-.55-0.38,36.589,36.589,0,0,1-1.26-4.01,0.588,0.588,0,1,1,1.14-.29,34.91,34.91,0,0,0,1.22,3.88,0.6,0.6,0,0,1-.34.76A0.522,0.522,0,0,1,1382.82,1992.8Zm66.54-.54a0.645,0.645,0,0,1-.2-0.03,0.589,0.589,0,0,1-.35-0.76,37.877,37.877,0,0,0,1.15-3.9,0.576,0.576,0,0,1,.7-0.44,0.589,0.589,0,0,1,.44.71,37.276,37.276,0,0,1-1.19,4.03A0.589,0.589,0,0,1,1449.36,1992.26Zm-68.55-7.47a0.591,0.591,0,0,1-.58-0.52,36.56,36.56,0,0,1-.3-4.19,0.577,0.577,0,0,1,.57-0.6h0.01a0.589,0.589,0,0,1,.59.58,36.591,36.591,0,0,0,.29,4.06,0.58,0.58,0,0,1-.5.66A0.22,0.22,0,0,1,1380.81,1984.79Zm70.42-.57c-0.02,0-.04-0.01-0.06-0.01a0.586,0.586,0,0,1-.52-0.65,36.877,36.877,0,0,0,.23-4.07c0-.38-0.01-0.76-0.02-1.13a0.59,0.59,0,0,1,1.18-.04c0.01,0.39.02,0.78,0.01,1.17a39.119,39.119,0,0,1-.23,4.2A0.6,0.6,0,0,1,1451.23,1984.22Zm-70.55-7.69a0.127,0.127,0,0,1-.06-0.01,0.584,0.584,0,0,1-.52-0.64,33.968,33.968,0,0,1,.65-4.16,0.585,0.585,0,0,1,.7-0.45,0.6,0.6,0,0,1,.45.7,33.949,33.949,0,0,0-.63,4.02A0.6,0.6,0,0,1,1380.68,1976.53Zm70.4-1.72a0.6,0.6,0,0,1-.58-0.51,33.435,33.435,0,0,0-.82-3.98,0.591,0.591,0,1,1,1.14-.31,36.237,36.237,0,0,1,.84,4.12,0.587,0.587,0,0,1-.49.67C1451.14,1974.8,1451.11,1974.81,1451.08,1974.81Zm-68.65-6.36a0.582,0.582,0,0,1-.19-0.03,0.6,0.6,0,0,1-.37-0.75,37.5,37.5,0,0,1,1.59-3.9,0.576,0.576,0,0,1,.78-0.27,0.6,0.6,0,0,1,.28.79,34.912,34.912,0,0,0-1.54,3.76A0.576,0.576,0,0,1,1382.43,1968.45Zm66.52-1.62a0.582,0.582,0,0,1-.54-0.37,35.339,35.339,0,0,0-1.72-3.69,0.6,0.6,0,0,1,.24-0.8,0.584,0.584,0,0,1,.8.24,37.63,37.63,0,0,1,1.77,3.81,0.6,0.6,0,0,1-.33.77A0.57,0.57,0,0,1,1448.95,1966.83Zm-62.97-5.83a0.62,0.62,0,0,1-.32-0.09,0.605,0.605,0,0,1-.18-0.82,37.139,37.139,0,0,1,2.43-3.42,0.6,0.6,0,0,1,.83-0.09,0.589,0.589,0,0,1,.08.83,38.13,38.13,0,0,0-2.35,3.31A0.578,0.578,0,0,1,1385.98,1961Zm59.07-1.44a0.58,0.58,0,0,1-.48-0.25,35.1,35.1,0,0,0-2.5-3.19,0.588,0.588,0,0,1,.87-0.79,37.2,37.2,0,0,1,2.59,3.3,0.6,0.6,0,0,1-.14.83A0.589,0.589,0,0,1,1445.05,1959.56Zm-53.93-4.99a0.554,0.554,0,0,1-.41-0.18,0.6,0.6,0,0,1,0-.84,37.458,37.458,0,0,1,3.14-2.77,0.592,0.592,0,1,1,.72.94,34.963,34.963,0,0,0-3.03,2.68A0.625,0.625,0,0,1,1391.12,1954.57Zm48.48-1.18a0.617,0.617,0,0,1-.39-0.15,35,35,0,0,0-3.16-2.53,0.6,0.6,0,0,1-.14-0.83,0.59,0.59,0,0,1,.82-0.14,37.134,37.134,0,0,1,3.27,2.62,0.586,0.586,0,0,1,.04.83A0.571,0.571,0,0,1,1439.6,1953.39Zm-42.01-3.9a0.586,0.586,0,0,1-.3-1.09,36.142,36.142,0,0,1,3.68-1.98,0.59,0.59,0,0,1,.78.3,0.584,0.584,0,0,1-.29.78,32.035,32.035,0,0,0-3.56,1.91A0.575,0.575,0,0,1,1397.59,1949.49Zm35.31-.86a0.581,0.581,0,0,1-.28-0.07,33.758,33.758,0,0,0-3.65-1.73,0.589,0.589,0,0,1-.33-0.77,0.578,0.578,0,0,1,.76-0.33,35.257,35.257,0,0,1,3.78,1.79,0.6,0.6,0,0,1,.24.8A0.589,0.589,0,0,1,1432.9,1948.63Zm-27.86-2.58a0.589,0.589,0,0,1-.18-1.15,37.533,37.533,0,0,1,4.04-1.07,0.591,0.591,0,0,1,.69.47,0.6,0.6,0,0,1-.46.7,35.09,35.09,0,0,0-3.91,1.02A0.566,0.566,0,0,1,1405.04,1946.05Zm20.25-.49a0.772,0.772,0,0,1-.15-0.02,33.6,33.6,0,0,0-3.96-.84,0.587,0.587,0,0,1-.49-0.67,0.6,0.6,0,0,1,.67-0.5,37.412,37.412,0,0,1,4.08.86,0.6,0.6,0,0,1,.42.73A0.606,0.606,0,0,1,1425.29,1945.56Zm-12.21-1.13a0.591,0.591,0,0,1-.05-1.18c0.98-.08,1.97-0.12,2.95-0.12,0.42-.01.82,0.01,1.22,0.02a0.591,0.591,0,0,1,.57.61,0.579,0.579,0,0,1-.61.57c-0.39-.01-0.77,0-1.18-0.01-0.95,0-1.91.03-2.85,0.11h-0.05Z" transform="translate(-1356 -1919)"/>
</svg>
